<svg width="63" height="13" viewBox="0 0 63 13" fill="none" xmlns="http://www.w3.org/2000/svg">
<path d="M0.9375 4.01562C0.9375 3.4375 1.08073 2.91406 1.36719 2.44531C1.65365 1.97135 2.03646 1.59375 2.51562 1.3125C2.99479 1.03125 3.52604 0.890625 4.10938 0.890625H9.92969V2.53125H4.10938C3.6875 2.53125 3.32812 2.67708 3.03125 2.96875C2.73438 3.25521 2.58594 3.60417 2.58594 4.01562V8.90625C2.58594 9.30208 2.73438 9.64323 3.03125 9.92969C3.32812 10.2109 3.6875 10.3516 4.10938 10.3516H9.92969V12H4.10938C3.52604 12 2.99479 11.862 2.51562 11.5859C2.03646 11.3099 1.65365 10.9401 1.36719 10.4766C1.08073 10.0078 0.9375 9.49219 0.9375 8.92969V4.01562ZM11.6953 11.0625C11.6953 10.7812 11.7943 10.5417 11.9922 10.3438C12.1901 10.1458 12.4297 10.0469 12.7109 10.0469C12.9974 10.0469 13.237 10.1458 13.4297 10.3438C13.6276 10.5365 13.7266 10.776 13.7266 11.0625C13.7266 11.349 13.6276 11.5911 13.4297 11.7891C13.237 11.9818 12.9974 12.0781 12.7109 12.0781C12.4297 12.0781 12.1901 11.9792 11.9922 11.7812C11.7943 11.5833 11.6953 11.3438 11.6953 11.0625ZM15.7188 0.890625H23.1562V2.53125H17.3672V12H15.7188V0.890625ZM18.3047 5.39844H23.1562V7.03906H18.3047V5.39844ZM24.875 6.82812C24.875 6.29167 25.0052 5.80208 25.2656 5.35938C25.5312 4.91667 25.8854 4.5651 26.3281 4.30469C26.7708 4.03906 27.2604 3.90625 27.7969 3.90625H29.5625C30.099 3.90625 30.5885 4.03906 31.0312 4.30469C31.474 4.5651 31.8255 4.91667 32.0859 5.35938C32.3516 5.80208 32.4844 6.29167 32.4844 6.82812V9.07812C32.4844 9.61458 32.3516 10.1042 32.0859 10.5469C31.8255 10.9896 31.474 11.3438 31.0312 11.6094C30.5885 11.8698 30.099 12 29.5625 12H27.7969C27.2604 12 26.7708 11.8698 26.3281 11.6094C25.8854 11.3438 25.5312 10.9896 25.2656 10.5469C25.0052 10.1042 24.875 9.61458 24.875 9.07812V6.82812ZM26.5234 9.0625C26.5234 9.41667 26.6484 9.72135 26.8984 9.97656C27.1484 10.2266 27.4479 10.3516 27.7969 10.3516H29.5625C29.9167 10.3516 30.2161 10.2266 30.4609 9.97656C30.7109 9.72135 30.8359 9.41667 30.8359 9.0625V6.84375C30.8359 6.48958 30.7109 6.1875 30.4609 5.9375C30.2161 5.68229 29.9167 5.55469 29.5625 5.55469H27.7969C27.4479 5.55469 27.1484 5.68229 26.8984 5.9375C26.6484 6.1875 26.5234 6.48958 26.5234 6.84375V9.0625ZM34.2812 0.890625H35.9297V3.90625H38.4766C39.0391 3.90625 39.5495 4.03906 40.0078 4.30469C40.4714 4.5651 40.8385 4.91667 41.1094 5.35938C41.3854 5.79688 41.5234 6.28385 41.5234 6.82031V12H39.875V6.84375C39.875 6.5 39.7344 6.20052 39.4531 5.94531C39.1771 5.6849 38.8516 5.55469 38.4766 5.55469H35.9297V12H34.2812V0.890625ZM43.4062 6.17188C43.4062 5.75521 43.5104 5.375 43.7188 5.03125C43.9323 4.6875 44.2135 4.41406 44.5625 4.21094C44.9167 4.00781 45.3073 3.90625 45.7344 3.90625H47.5391V5.54688H45.7344C45.5469 5.54688 45.3854 5.61198 45.25 5.74219C45.1198 5.86719 45.0547 6.02083 45.0547 6.20312V12H43.4062V6.17188ZM49.0312 5.57812C49.0312 5.11458 49.2005 4.72135 49.5391 4.39844C49.8776 4.07031 50.2839 3.90625 50.7578 3.90625H54.1328C54.5651 3.90625 54.9557 4.01302 55.3047 4.22656C55.6589 4.4349 55.9401 4.71875 56.1484 5.07812C56.362 5.43229 56.4688 5.82552 56.4688 6.25781V6.48438C56.4688 6.91146 56.362 7.30208 56.1484 7.65625C55.9401 8.00521 55.6589 8.28646 55.3047 8.5C54.9557 8.70833 54.5651 8.8125 54.1328 8.8125H51.6172V7.17188H54.1484C54.3359 7.17188 54.4948 7.10417 54.625 6.96875C54.7604 6.83333 54.8281 6.66927 54.8281 6.47656V6.25781C54.8281 6.0599 54.7604 5.89323 54.625 5.75781C54.4948 5.6224 54.3359 5.55469 54.1484 5.55469H50.6797V9.71094C50.6797 9.88802 50.7396 10.0391 50.8594 10.1641C50.9792 10.2891 51.125 10.3516 51.2969 10.3516H55.8984V12H51.2969C50.8802 12 50.5 11.8984 50.1562 11.6953C49.8125 11.487 49.5391 11.2109 49.3359 10.8672C49.1328 10.5182 49.0312 10.1354 49.0312 9.71875V5.57812ZM58.2656 6.17188C58.2656 5.75521 58.3698 5.375 58.5781 5.03125C58.7917 4.6875 59.0729 4.41406 59.4219 4.21094C59.776 4.00781 60.1667 3.90625 60.5938 3.90625H62.3984V5.54688H60.5938C60.4062 5.54688 60.2448 5.61198 60.1094 5.74219C59.9792 5.86719 59.9141 6.02083 59.9141 6.20312V12H58.2656V6.17188Z" fill="#F8F5EC"/>
</svg>
