<svg width="58" height="38" viewBox="0 0 58 38" fill="none" xmlns="http://www.w3.org/2000/svg">
  <path d="M15.2 26.2C14.3 26.2 13.5 25.7 13.1 24.8C12.8 24.2 12.7 23.5 12.7 23V21.8C12.7 21.1 12.6 20.6 12.3 20.3C12 20 11.5 19.8 10.8 19.8V18.7C11.5 18.7 12 18.5 12.3 18.2C12.6 17.9 12.7 17.4 12.7 16.7V15.5C12.7 15.2 12.7 14.9 12.8 14.6C12.9 14.3 13.1 14 13.3 13.7C13.5 13.4 13.8 13.2 14.1 13C14.4 12.8 14.8 12.7 15.2 12.7L15.3 13.5C15 13.5 14.8 13.6 14.6 13.7C14.4 13.8 14.3 14 14.2 14.2C14.1 14.4 14 14.7 14 15V16.7C14 17.3 13.9 17.8 13.6 18.2C13.3 18.6 12.9 18.9 12.3 19.1C12.9 19.3 13.3 19.6 13.6 20C13.9 20.4 14 20.9 14 21.5V23C14 23.3 14 23.6 14.1 23.9C14.2 24.2 14.3 24.5 14.5 24.7C14.7 24.9 14.9 25.1 15.2 25.1L15.2 26.2Z" fill="none" stroke="currentColor" stroke-width="1.3"/>
  <path d="M43 25.1C43.3 25.1 43.5 24.9 43.7 24.7C43.9 24.5 44 24.2 44.1 23.9C44.2 23.6 44.2 23.3 44.2 23V21.5C44.2 21 44.3 20.5 44.6 20.1C44.9 19.7 45.3 19.4 45.9 19.2C45.3 19 44.9 18.7 44.6 18.3C44.3 17.9 44.2 17.4 44.2 16.7V15C44.2 14.7 44.1 14.4 44 14.2C43.9 14 43.8 13.8 43.6 13.7C43.4 13.6 43.2 13.5 42.9 13.5L43 12.7C43.4 12.7 43.8 12.8 44.1 13C44.4 13.2 44.7 13.4 44.9 13.7C45.1 14 45.3 14.3 45.4 14.6C45.5 14.9 45.5 15.2 45.5 15.5V16.7C45.5 17.4 45.6 17.9 45.9 18.3C46.2 18.7 46.6 19 47.2 19.2C46.6 19.4 46.2 19.7 45.9 20.1C45.6 20.5 45.5 21 45.5 21.5V23C45.5 23.5 45.4 24.2 45.1 24.8C44.7 25.7 43.9 26.2 43 26.2L43 25.1Z" fill="none" stroke="currentColor" stroke-width="1.3"/>
  <path d="M35.689 35H43.8322L55 19.3504L43.8322 3H35.689L20.566 35H13.1208L3 19.3504L13.1208 3H20.566" stroke="currentColor" stroke-width="4" stroke-linecap="round"/>
</svg>
