<svg width="6" height="16" viewBox="0 0 6 16" fill="none" xmlns="http://www.w3.org/2000/svg">
<path d="M5.64062 15.8594C5.13542 15.8438 4.69792 15.7266 4.32812 15.5078C3.95833 15.2891 3.65104 15 3.40625 14.6406C3.17188 14.2969 2.99479 13.9115 2.875 13.4844C2.75521 13.0625 2.69531 12.6432 2.69531 12.2266V10.9062C2.69531 10.1562 2.51562 9.61198 2.15625 9.27344C1.80208 8.9349 1.25781 8.76302 0.523438 8.75781V7.625C1.25781 7.625 1.80208 7.45833 2.15625 7.125C2.51562 6.78646 2.69531 6.23958 2.69531 5.48438V4.15625C2.69531 3.73438 2.75 3.30469 2.85938 2.86719C2.97396 2.42448 3.15365 2.02865 3.39844 1.67969C3.6276 1.34635 3.92708 1.07552 4.29688 0.867188C4.66667 0.653646 5.11458 0.539062 5.64062 0.523438L5.80469 1.42188C5.42969 1.43229 5.13021 1.52083 4.90625 1.6875C4.6875 1.85417 4.52344 2.0651 4.41406 2.32031C4.29948 2.58073 4.22656 2.8724 4.19531 3.19531C4.16406 3.51823 4.14844 3.83854 4.14844 4.15625V5.48438C4.14844 6.10938 4.0026 6.65885 3.71094 7.13281C3.42448 7.60156 2.97917 7.95833 2.375 8.20312C2.97917 8.44271 3.42448 8.79948 3.71094 9.27344C3.9974 9.74219 4.14323 10.2865 4.14844 10.9062V12.2266C4.14844 12.5495 4.17448 12.8698 4.22656 13.1875C4.27865 13.5104 4.36979 13.7995 4.5 14.0547C4.625 14.3151 4.79167 14.5286 5 14.6953C5.21354 14.862 5.48177 14.9505 5.80469 14.9609L5.64062 15.8594Z" fill="#F8F5EC"/>
</svg>
