<svg width="6" height="16" viewBox="0 0 6 16" fill="none" xmlns="http://www.w3.org/2000/svg">
<path d="M0.523438 14.9609C0.841146 14.9505 1.10677 14.862 1.32031 14.6953C1.53385 14.5286 1.70573 14.3151 1.83594 14.0547C1.96094 13.7995 2.04948 13.5104 2.10156 13.1875C2.15885 12.8698 2.1875 12.5495 2.1875 12.2266V10.9062C2.1875 10.4948 2.2474 10.1146 2.36719 9.76562C2.49219 9.41667 2.68229 9.11458 2.9375 8.85938C3.07292 8.72396 3.22396 8.60156 3.39062 8.49219C3.5625 8.38281 3.75 8.28646 3.95312 8.20312C3.74479 8.11979 3.55208 8.02083 3.375 7.90625C3.20312 7.79167 3.05208 7.66406 2.92188 7.52344C2.67188 7.26302 2.48698 6.96094 2.36719 6.61719C2.2474 6.26823 2.1875 5.89062 2.1875 5.48438V4.15625C2.1875 3.83854 2.16927 3.51823 2.13281 3.19531C2.10156 2.8724 2.03125 2.58073 1.92188 2.32031C1.80729 2.0651 1.64062 1.85417 1.42188 1.6875C1.20312 1.52083 0.90625 1.43229 0.53125 1.42188L0.6875 0.523438C1.19271 0.539062 1.625 0.645833 1.98438 0.84375C2.34896 1.04167 2.64844 1.29948 2.88281 1.61719C3.14844 1.97656 3.33854 2.38021 3.45312 2.82812C3.57292 3.27604 3.63281 3.71875 3.63281 4.15625V5.48438C3.63281 5.79688 3.66146 6.07292 3.71875 6.3125C3.78125 6.54688 3.8724 6.75 3.99219 6.92188C4.16406 7.16667 4.40104 7.34635 4.70312 7.46094C5.01042 7.57031 5.3776 7.625 5.80469 7.625V8.75781C5.42969 8.76302 5.10156 8.8099 4.82031 8.89844C4.54427 8.98177 4.31771 9.11458 4.14062 9.29688C3.96875 9.47396 3.84115 9.69531 3.75781 9.96094C3.67448 10.2266 3.63281 10.5417 3.63281 10.9062V12.2266C3.63281 12.6432 3.57552 13.0625 3.46094 13.4844C3.34635 13.9115 3.16927 14.2995 2.92969 14.6484C2.6849 14.9974 2.3776 15.2839 2.00781 15.5078C1.63802 15.7318 1.19792 15.849 0.6875 15.8594L0.523438 14.9609Z" fill="#F8F5EC"/>
</svg>
