<svg width="209" height="17" viewBox="0 0 209 17" fill="none" xmlns="http://www.w3.org/2000/svg">
<path d="M0.656 1.496H2.448L5.584 10.328L5.312 10.216L7.6 4.296L8.32 6.392L5.264 13.528L0.656 1.496ZM6.208 1.496H7.76L11.152 10.2L10.832 10.136L13.824 1.496H15.472L10.928 13.512L6.208 1.496ZM17.421 13V0.615999H18.877V7.912L18.845 7.64C19.069 7.20267 19.4103 6.84 19.869 6.552C20.3383 6.264 20.8877 6.12 21.517 6.12C22.1463 6.12 22.6583 6.30667 23.053 6.68C23.4583 7.04267 23.6663 7.51733 23.677 8.104V13H22.173V8.632C22.1623 8.26933 22.0557 7.976 21.853 7.752C21.661 7.51733 21.357 7.4 20.941 7.4C20.557 7.4 20.2103 7.512 19.901 7.736C19.5917 7.94933 19.3463 8.24267 19.165 8.616C18.9943 8.98933 18.909 9.416 18.909 9.896V13H17.421ZM29.0168 13.16C28.3981 13.16 27.8328 13.0267 27.3207 12.76C26.8194 12.4933 26.4194 12.104 26.1208 11.592C25.8328 11.0693 25.6888 10.4347 25.6888 9.688C25.6888 8.952 25.8434 8.31733 26.1528 7.784C26.4621 7.24 26.8728 6.824 27.3848 6.536C27.9074 6.248 28.4781 6.104 29.0968 6.104C29.7154 6.104 30.2381 6.248 30.6648 6.536C31.0914 6.81333 31.4168 7.144 31.6408 7.528L31.5448 7.784L31.6888 6.376H33.0648V13H31.5768V11.272L31.7368 11.656C31.6941 11.7627 31.5981 11.9013 31.4488 12.072C31.3101 12.232 31.1181 12.3973 30.8728 12.568C30.6381 12.7387 30.3661 12.8827 30.0568 13C29.7474 13.1067 29.4008 13.16 29.0168 13.16ZM29.4168 11.928C29.7901 11.928 30.1261 11.8587 30.4248 11.72C30.7234 11.5813 30.9688 11.3893 31.1608 11.144C31.3634 10.888 31.5021 10.584 31.5768 10.232V8.936C31.4914 8.616 31.3421 8.33867 31.1288 8.104C30.9154 7.85867 30.6594 7.672 30.3608 7.544C30.0621 7.40533 29.7314 7.336 29.3688 7.336C28.9741 7.336 28.6114 7.432 28.2808 7.624C27.9501 7.816 27.6834 8.08267 27.4808 8.424C27.2888 8.76533 27.1928 9.16533 27.1928 9.624C27.1928 10.0507 27.2941 10.44 27.4968 10.792C27.6994 11.144 27.9714 11.4213 28.3128 11.624C28.6541 11.8267 29.0221 11.928 29.4168 11.928ZM36.2798 3.464H37.7678V6.408H39.5918V7.576H37.7678V13H36.2798V7.576H35.0638V6.408H36.2798V3.464ZM46.8203 1.432H48.3723V13H46.8203V1.432ZM59.1418 13.16C58.5231 13.16 57.9578 13.0267 57.4457 12.76C56.9444 12.4933 56.5444 12.104 56.2458 11.592C55.9578 11.0693 55.8138 10.4347 55.8138 9.688C55.8138 8.952 55.9684 8.31733 56.2778 7.784C56.5871 7.24 56.9978 6.824 57.5098 6.536C58.0324 6.248 58.6031 6.104 59.2218 6.104C59.8404 6.104 60.3631 6.248 60.7898 6.536C61.2164 6.81333 61.5418 7.144 61.7658 7.528L61.6698 7.784L61.8138 6.376H63.1898V13H61.7018V11.272L61.8618 11.656C61.8191 11.7627 61.7231 11.9013 61.5738 12.072C61.4351 12.232 61.2431 12.3973 60.9978 12.568C60.7631 12.7387 60.4911 12.8827 60.1818 13C59.8724 13.1067 59.5258 13.16 59.1418 13.16ZM59.5418 11.928C59.9151 11.928 60.2511 11.8587 60.5498 11.72C60.8484 11.5813 61.0938 11.3893 61.2858 11.144C61.4884 10.888 61.6271 10.584 61.7018 10.232V8.936C61.6164 8.616 61.4671 8.33867 61.2538 8.104C61.0404 7.85867 60.7844 7.672 60.4858 7.544C60.1871 7.40533 59.8564 7.336 59.4938 7.336C59.0991 7.336 58.7364 7.432 58.4058 7.624C58.0751 7.816 57.8084 8.08267 57.6058 8.424C57.4138 8.76533 57.3178 9.16533 57.3178 9.624C57.3178 10.0507 57.4191 10.44 57.6218 10.792C57.8244 11.144 58.0964 11.4213 58.4378 11.624C58.7791 11.8267 59.1471 11.928 59.5418 11.928ZM67.0928 6.376L67.2208 7.864L67.1568 7.736C67.4021 7.23467 67.7488 6.84 68.1968 6.552C68.6554 6.264 69.1781 6.12 69.7648 6.12C70.1381 6.12 70.4688 6.17867 70.7568 6.296C71.0448 6.41333 71.2794 6.584 71.4608 6.808C71.6528 7.02133 71.7754 7.288 71.8288 7.608L71.7488 7.656C72.0048 7.176 72.3568 6.80267 72.8048 6.536C73.2634 6.25867 73.7434 6.12 74.2448 6.12C74.8954 6.12 75.4074 6.30667 75.7808 6.68C76.1648 7.04267 76.3621 7.51733 76.3728 8.104V13H74.8848V8.632C74.8741 8.29067 74.7888 8.008 74.6288 7.784C74.4794 7.54933 74.2128 7.42133 73.8288 7.4C73.4448 7.4 73.0981 7.51733 72.7888 7.752C72.4901 7.98667 72.2554 8.29067 72.0848 8.664C71.9141 9.02667 71.8234 9.42133 71.8128 9.848V13H70.3248V8.632C70.3141 8.29067 70.2234 8.008 70.0528 7.784C69.8928 7.54933 69.6208 7.42133 69.2368 7.4C68.8421 7.4 68.4954 7.51733 68.1968 7.752C67.8981 7.98667 67.6634 8.29067 67.4928 8.664C67.3328 9.03733 67.2528 9.43733 67.2528 9.864V13H65.7648V6.376H67.0928ZM89.4064 12.392C89.1077 12.6267 88.7504 12.8133 88.3344 12.952C87.9184 13.0907 87.5024 13.16 87.0864 13.16C86.361 13.16 85.7264 13.016 85.1824 12.728C84.6384 12.44 84.2117 12.04 83.9024 11.528C83.6037 11.0053 83.4544 10.392 83.4544 9.688C83.4544 8.984 83.6144 8.37067 83.9344 7.848C84.265 7.32533 84.6917 6.92533 85.2144 6.648C85.7477 6.36 86.3184 6.216 86.9264 6.216C87.4597 6.216 87.9344 6.29067 88.3504 6.44C88.777 6.58933 89.1397 6.792 89.4384 7.048L88.7024 8.008C88.5104 7.85867 88.2757 7.72533 87.9984 7.608C87.721 7.49067 87.4064 7.432 87.0544 7.432C86.6704 7.432 86.313 7.53333 85.9824 7.736C85.6624 7.928 85.4064 8.19467 85.2144 8.536C85.033 8.87733 84.9424 9.26133 84.9424 9.688C84.9424 10.0933 85.0384 10.472 85.2304 10.824C85.4224 11.1653 85.689 11.4373 86.0304 11.64C86.3717 11.832 86.761 11.928 87.1984 11.928C87.4864 11.928 87.7477 11.8853 87.9824 11.8C88.2277 11.7147 88.4464 11.5973 88.6384 11.448L89.4064 12.392ZM93.4233 13.256C92.8259 13.256 92.3299 13.0747 91.9353 12.712C91.5513 12.3387 91.3486 11.8587 91.3273 11.272V6.376H92.8153V10.744C92.8366 11.1067 92.9379 11.4 93.1193 11.624C93.3113 11.848 93.6099 11.9653 94.0153 11.976C94.3886 11.976 94.7193 11.8693 95.0073 11.656C95.3059 11.432 95.5459 11.1333 95.7273 10.76C95.9086 10.376 95.9993 9.944 95.9993 9.464V6.376H97.4873V13H96.1273L95.9993 11.368L96.0793 11.656C95.9513 11.9653 95.7539 12.2427 95.4873 12.488C95.2313 12.7227 94.9273 12.9093 94.5753 13.048C94.2233 13.1867 93.8393 13.256 93.4233 13.256ZM101.39 6.376L101.534 8.296L101.454 8.04C101.624 7.63467 101.87 7.29333 102.19 7.016C102.52 6.728 102.862 6.50933 103.214 6.36C103.576 6.2 103.891 6.12 104.158 6.12L104.078 7.592C103.576 7.56 103.134 7.656 102.75 7.88C102.376 8.104 102.078 8.40267 101.854 8.776C101.64 9.14933 101.534 9.54933 101.534 9.976V13H100.062V6.376H101.39ZM107.405 6.376L107.549 8.296L107.469 8.04C107.64 7.63467 107.885 7.29333 108.205 7.016C108.536 6.728 108.877 6.50933 109.229 6.36C109.592 6.2 109.907 6.12 110.173 6.12L110.093 7.592C109.592 7.56 109.149 7.656 108.765 7.88C108.392 8.104 108.093 8.40267 107.869 8.776C107.656 9.14933 107.549 9.54933 107.549 9.976V13H106.077V6.376H107.405ZM114.884 13.16C114.126 13.16 113.476 13.0107 112.932 12.712C112.388 12.4027 111.966 11.9867 111.668 11.464C111.38 10.9307 111.236 10.3227 111.236 9.64C111.236 8.98933 111.401 8.39733 111.732 7.864C112.062 7.33067 112.505 6.904 113.06 6.584C113.614 6.264 114.233 6.104 114.916 6.104C115.79 6.104 116.516 6.36 117.092 6.872C117.668 7.384 118.057 8.088 118.26 8.984L112.804 10.904L112.452 10.024L116.932 8.392L116.612 8.6C116.484 8.248 116.27 7.944 115.972 7.688C115.673 7.42133 115.284 7.288 114.804 7.288C114.398 7.288 114.036 7.38933 113.716 7.592C113.396 7.784 113.145 8.05067 112.964 8.392C112.782 8.73333 112.692 9.12267 112.692 9.56C112.692 10.0187 112.788 10.424 112.98 10.776C113.172 11.1173 113.433 11.3893 113.764 11.592C114.105 11.784 114.489 11.88 114.916 11.88C115.204 11.88 115.481 11.8267 115.748 11.72C116.025 11.6133 116.281 11.4747 116.516 11.304L117.204 12.408C116.873 12.632 116.5 12.8133 116.084 12.952C115.678 13.0907 115.278 13.16 114.884 13.16ZM121.452 6.376L121.58 7.992L121.516 7.736C121.729 7.24533 122.076 6.856 122.556 6.568C123.036 6.26933 123.591 6.12 124.22 6.12C124.849 6.12 125.361 6.30667 125.756 6.68C126.161 7.04267 126.369 7.51733 126.38 8.104V13H124.876V8.632C124.865 8.26933 124.759 7.976 124.556 7.752C124.364 7.51733 124.06 7.4 123.644 7.4C123.26 7.4 122.913 7.50667 122.604 7.72C122.295 7.93333 122.049 8.22667 121.868 8.6C121.697 8.97333 121.612 9.40533 121.612 9.896V13H120.124V6.376H121.452ZM129.608 3.464H131.096V6.408H132.92V7.576H131.096V13H129.608V7.576H128.392V6.408H129.608V3.464ZM134.718 0.615999H136.206V13H134.718V0.615999ZM139.34 16.184L143.708 6.376H145.084L140.812 16.184H139.34ZM140.972 13.048L137.788 6.376H139.468L142.14 12.296L140.972 13.048ZM151.749 0.615999H153.237V13H151.749V0.615999ZM158.884 13.16C158.126 13.16 157.476 13.0107 156.932 12.712C156.388 12.4027 155.966 11.9867 155.668 11.464C155.38 10.9307 155.236 10.3227 155.236 9.64C155.236 8.98933 155.401 8.39733 155.732 7.864C156.062 7.33067 156.505 6.904 157.06 6.584C157.614 6.264 158.233 6.104 158.916 6.104C159.79 6.104 160.516 6.36 161.092 6.872C161.668 7.384 162.057 8.088 162.26 8.984L156.804 10.904L156.452 10.024L160.932 8.392L160.612 8.6C160.484 8.248 160.27 7.944 159.972 7.688C159.673 7.42133 159.284 7.288 158.804 7.288C158.398 7.288 158.036 7.38933 157.716 7.592C157.396 7.784 157.145 8.05067 156.964 8.392C156.782 8.73333 156.692 9.12267 156.692 9.56C156.692 10.0187 156.788 10.424 156.98 10.776C157.172 11.1173 157.433 11.3893 157.764 11.592C158.105 11.784 158.489 11.88 158.916 11.88C159.204 11.88 159.481 11.8267 159.748 11.72C160.025 11.6133 160.281 11.4747 160.516 11.304L161.204 12.408C160.873 12.632 160.5 12.8133 160.084 12.952C159.678 13.0907 159.278 13.16 158.884 13.16ZM166.876 13.16C166.257 13.16 165.692 13.0267 165.18 12.76C164.679 12.4933 164.279 12.104 163.98 11.592C163.692 11.0693 163.548 10.4347 163.548 9.688C163.548 8.952 163.703 8.31733 164.012 7.784C164.321 7.24 164.732 6.824 165.244 6.536C165.767 6.248 166.337 6.104 166.956 6.104C167.575 6.104 168.097 6.248 168.524 6.536C168.951 6.81333 169.276 7.144 169.5 7.528L169.404 7.784L169.548 6.376H170.924V13H169.436V11.272L169.596 11.656C169.553 11.7627 169.457 11.9013 169.308 12.072C169.169 12.232 168.977 12.3973 168.732 12.568C168.497 12.7387 168.225 12.8827 167.916 13C167.607 13.1067 167.26 13.16 166.876 13.16ZM167.276 11.928C167.649 11.928 167.985 11.8587 168.284 11.72C168.583 11.5813 168.828 11.3893 169.02 11.144C169.223 10.888 169.361 10.584 169.436 10.232V8.936C169.351 8.616 169.201 8.33867 168.988 8.104C168.775 7.85867 168.519 7.672 168.22 7.544C167.921 7.40533 167.591 7.336 167.228 7.336C166.833 7.336 166.471 7.432 166.14 7.624C165.809 7.816 165.543 8.08267 165.34 8.424C165.148 8.76533 165.052 9.16533 165.052 9.624C165.052 10.0507 165.153 10.44 165.356 10.792C165.559 11.144 165.831 11.4213 166.172 11.624C166.513 11.8267 166.881 11.928 167.276 11.928ZM174.827 6.376L174.971 8.296L174.891 8.04C175.062 7.63467 175.307 7.29333 175.627 7.016C175.958 6.728 176.299 6.50933 176.651 6.36C177.014 6.2 177.328 6.12 177.595 6.12L177.515 7.592C177.014 7.56 176.571 7.656 176.187 7.88C175.814 8.104 175.515 8.40267 175.291 8.776C175.078 9.14933 174.971 9.54933 174.971 9.976V13H173.499V6.376H174.827ZM180.843 6.376L180.971 7.992L180.907 7.736C181.12 7.24533 181.467 6.856 181.947 6.568C182.427 6.26933 182.981 6.12 183.611 6.12C184.24 6.12 184.752 6.30667 185.147 6.68C185.552 7.04267 185.76 7.51733 185.771 8.104V13H184.267V8.632C184.256 8.26933 184.149 7.976 183.947 7.752C183.755 7.51733 183.451 7.4 183.035 7.4C182.651 7.4 182.304 7.50667 181.995 7.72C181.685 7.93333 181.44 8.22667 181.259 8.6C181.088 8.97333 181.003 9.40533 181.003 9.896V13H179.515V6.376H180.843ZM188.359 6.376H189.847V13H188.359V6.376ZM188.247 3.976C188.247 3.74133 188.337 3.544 188.519 3.384C188.711 3.224 188.919 3.144 189.143 3.144C189.367 3.144 189.564 3.224 189.735 3.384C189.916 3.544 190.007 3.74133 190.007 3.976C190.007 4.22133 189.916 4.424 189.735 4.584C189.564 4.73333 189.367 4.808 189.143 4.808C188.919 4.808 188.711 4.728 188.519 4.568C188.337 4.408 188.247 4.21067 188.247 3.976ZM193.749 6.376L193.877 7.992L193.813 7.736C194.026 7.24533 194.373 6.856 194.853 6.568C195.333 6.26933 195.888 6.12 196.517 6.12C197.146 6.12 197.658 6.30667 198.053 6.68C198.458 7.04267 198.666 7.51733 198.677 8.104V13H197.173V8.632C197.162 8.26933 197.056 7.976 196.853 7.752C196.661 7.51733 196.357 7.4 195.941 7.4C195.557 7.4 195.21 7.50667 194.901 7.72C194.592 7.93333 194.346 8.22667 194.165 8.6C193.994 8.97333 193.909 9.40533 193.909 9.896V13H192.421V6.376H193.749ZM204.449 16.28C203.958 16.28 203.526 16.2213 203.153 16.104C202.779 15.9973 202.438 15.8427 202.129 15.64C201.83 15.4373 201.542 15.208 201.265 14.952L202.129 13.944C202.481 14.2747 202.838 14.5307 203.201 14.712C203.563 14.8933 203.969 14.984 204.417 14.984C204.918 14.984 205.339 14.8987 205.681 14.728C206.033 14.568 206.299 14.3387 206.481 14.04C206.662 13.752 206.753 13.416 206.753 13.032L206.769 11.24L206.897 11.528C206.705 11.9867 206.358 12.376 205.857 12.696C205.355 13.0053 204.747 13.16 204.033 13.16C203.425 13.16 202.865 13.0053 202.353 12.696C201.851 12.3867 201.446 11.9707 201.137 11.448C200.838 10.9147 200.689 10.3173 200.689 9.656C200.689 8.96267 200.849 8.35467 201.169 7.832C201.489 7.29867 201.91 6.87733 202.433 6.568C202.955 6.25867 203.526 6.104 204.145 6.104C204.731 6.104 205.265 6.22667 205.745 6.472C206.235 6.70667 206.593 7.01067 206.817 7.384L206.737 7.656L206.897 6.376H208.257V13.048C208.257 13.6453 208.102 14.1893 207.793 14.68C207.483 15.1707 207.046 15.56 206.481 15.848C205.915 16.136 205.238 16.28 204.449 16.28ZM202.177 9.624C202.177 10.0507 202.278 10.44 202.481 10.792C202.683 11.144 202.955 11.4213 203.297 11.624C203.649 11.8267 204.038 11.928 204.465 11.928C204.859 11.928 205.211 11.8587 205.521 11.72C205.841 11.5707 206.107 11.3733 206.321 11.128C206.534 10.872 206.683 10.5787 206.769 10.248V8.936C206.673 8.616 206.513 8.33867 206.289 8.104C206.065 7.85867 205.798 7.672 205.489 7.544C205.179 7.40533 204.838 7.336 204.465 7.336C204.038 7.336 203.649 7.432 203.297 7.624C202.955 7.816 202.683 8.088 202.481 8.44C202.278 8.78133 202.177 9.176 202.177 9.624Z" fill="#89BCD9"/>
</svg>
