<svg width="127" height="30" viewBox="0 0 127 30" fill="none" xmlns="http://www.w3.org/2000/svg">
<path d="M0.6875 0.78125H3.70312L10.875 9.54688L18.0469 0.78125H21.0625V23H17.7656V6.39062L12.25 13.0781H9.51562L3.98438 6.39062V23H0.6875V0.78125ZM27.6875 6.8125L31.8906 18.0312L36.1875 6.8125H39.8281L31.2344 29.0938H27.625L30.1406 22.4688L24.1875 6.8125H27.6875ZM51.0938 6.15625C51.0938 5.16667 51.3385 4.26562 51.8281 3.45312C52.3281 2.64062 52.9948 1.99479 53.8281 1.51562C54.6719 1.02604 55.599 0.78125 56.6094 0.78125H68.1094V4.0625H56.6094C56.0052 4.0625 55.4844 4.27604 55.0469 4.70312C54.6094 5.13021 54.3906 5.64583 54.3906 6.25V7.78125C54.3906 8.33333 54.6094 8.80729 55.0469 9.20312C55.4844 9.59896 56.0052 9.79688 56.6094 9.79688H63.6875C64.7083 9.79688 65.6354 10.0417 66.4688 10.5312C67.3021 11.0104 67.9635 11.6615 68.4531 12.4844C68.9531 13.2969 69.2031 14.1979 69.2031 15.1875V17.6094C69.2031 18.599 68.9531 19.5052 68.4531 20.3281C67.9635 21.1406 67.3021 21.7917 66.4688 22.2812C65.6354 22.7604 64.7083 23 63.6875 23H51.1094V19.7031H63.6875C64.3021 19.7031 64.8229 19.5 65.25 19.0938C65.6875 18.6771 65.9062 18.1771 65.9062 17.5938V15.2031C65.9062 14.6198 65.6875 14.1198 65.25 13.7031C64.8229 13.2865 64.3021 13.0781 63.6875 13.0781H56.6094C55.599 13.0781 54.6719 12.8438 53.8281 12.375C52.9948 11.8958 52.3281 11.2552 51.8281 10.4531C51.3385 9.65104 51.0938 8.76562 51.0938 7.79688V6.15625ZM72.9688 0.78125H76.2656V13.0156H77.375L83.2344 6.8125H87.5156L80.125 14.6562L88.1719 23H83.5625L77.0781 16.3125H76.2656V23H72.9688V0.78125ZM90.1562 2.40625C90.1562 1.84375 90.3542 1.36458 90.75 0.96875C91.1458 0.572917 91.625 0.375 92.1875 0.375C92.75 0.375 93.2292 0.572917 93.625 0.96875C94.0208 1.36458 94.2188 1.84375 94.2188 2.40625C94.2188 2.96875 94.0208 3.44792 93.625 3.84375C93.2292 4.23958 92.75 4.4375 92.1875 4.4375C91.625 4.4375 91.1458 4.23958 90.75 3.84375C90.3542 3.44792 90.1562 2.96875 90.1562 2.40625ZM90.5312 6.8125H93.8438V23H90.5312V6.8125ZM97.5938 0.78125H100.891V23H97.5938V0.78125ZM104.656 0.78125H107.953V23H104.656V0.78125ZM111.562 11.3594C111.562 10.5156 111.771 9.75 112.188 9.0625C112.615 8.375 113.177 7.82812 113.875 7.42188C114.583 7.01562 115.365 6.8125 116.219 6.8125H125.719V10.1094H116.219C115.844 10.1094 115.521 10.2344 115.25 10.4844C114.99 10.724 114.859 11.0156 114.859 11.3594V11.75C114.859 12.1042 114.99 12.4062 115.25 12.6562C115.521 12.9062 115.844 13.0312 116.219 13.0312H122.125C122.979 13.0312 123.755 13.2396 124.453 13.6562C125.161 14.0625 125.724 14.6094 126.141 15.2969C126.557 15.9844 126.766 16.75 126.766 17.5938V18.4375C126.766 19.2708 126.557 20.0365 126.141 20.7344C125.724 21.4219 125.161 21.974 124.453 22.3906C123.755 22.7969 122.979 23 122.125 23H112.297V19.7031H122.125C122.5 19.7031 122.818 19.5781 123.078 19.3281C123.349 19.0781 123.484 18.776 123.484 18.4219V17.6094C123.484 17.2448 123.349 16.9375 123.078 16.6875C122.818 16.4375 122.5 16.3125 122.125 16.3125H116.219C115.365 16.3125 114.583 16.1094 113.875 15.7031C113.177 15.2865 112.615 14.7344 112.188 14.0469C111.771 13.349 111.562 12.5833 111.562 11.75V11.3594Z" fill="#89BCD9"/>
</svg>
