<svg width="197" height="19" viewBox="0 0 197 19" fill="none" xmlns="http://www.w3.org/2000/svg">
<path d="M0.21 0.751999H2.82V14H0.21V0.751999ZM14.9908 14.216C14.2588 14.216 13.5928 14.072 12.9928 13.784C12.4048 13.484 11.9368 13.028 11.5888 12.416C11.2408 11.804 11.0668 11.024 11.0668 10.076C11.0668 9.188 11.2468 8.42 11.6068 7.772C11.9668 7.124 12.4408 6.626 13.0288 6.278C13.6168 5.918 14.2408 5.738 14.9008 5.738C15.6808 5.738 16.2688 5.87 16.6648 6.134C17.0728 6.386 17.4088 6.668 17.6728 6.98L17.5648 7.286L17.7988 6.134H20.1388V14H17.6188V12.29L17.8168 12.83C17.7928 12.83 17.7208 12.902 17.6008 13.046C17.4808 13.178 17.3008 13.34 17.0608 13.532C16.8328 13.712 16.5448 13.868 16.1968 14C15.8608 14.144 15.4588 14.216 14.9908 14.216ZM15.7108 12.164C16.0108 12.164 16.2808 12.122 16.5208 12.038C16.7608 11.942 16.9708 11.81 17.1508 11.642C17.3308 11.462 17.4868 11.24 17.6188 10.976V9.05C17.5228 8.786 17.3788 8.564 17.1868 8.384C16.9948 8.192 16.7668 8.048 16.5028 7.952C16.2388 7.844 15.9448 7.79 15.6208 7.79C15.2608 7.79 14.9248 7.886 14.6128 8.078C14.3128 8.258 14.0728 8.51 13.8928 8.834C13.7128 9.158 13.6228 9.53 13.6228 9.95C13.6228 10.37 13.7188 10.748 13.9108 11.084C14.1028 11.42 14.3548 11.684 14.6668 11.876C14.9908 12.068 15.3388 12.164 15.7108 12.164ZM25.0215 6.134L25.2195 7.52L25.1835 7.412C25.4955 6.884 25.8855 6.476 26.3535 6.188C26.8215 5.888 27.3855 5.738 28.0455 5.738C28.4775 5.738 28.8555 5.798 29.1795 5.918C29.5155 6.038 29.7975 6.218 30.0255 6.458C30.2535 6.686 30.4095 6.986 30.4935 7.358L30.4035 7.376C30.7395 6.884 31.1415 6.488 31.6095 6.188C32.0895 5.888 32.5875 5.738 33.1035 5.738C33.8835 5.738 34.5015 5.96 34.9575 6.404C35.4255 6.836 35.6655 7.4 35.6775 8.096V14H33.1755V9.14C33.1635 8.792 33.1095 8.51 33.0135 8.294C32.9175 8.066 32.6955 7.94 32.3475 7.916C31.9395 7.916 31.5915 8.06 31.3035 8.348C31.0275 8.624 30.8175 8.984 30.6735 9.428C30.5415 9.86 30.4755 10.31 30.4755 10.778V14H27.9555V9.14C27.9435 8.792 27.8775 8.51 27.7575 8.294C27.6495 8.066 27.4215 7.94 27.0735 7.916C26.6775 7.916 26.3415 8.06 26.0655 8.348C25.8015 8.624 25.5975 8.978 25.4535 9.41C25.3215 9.842 25.2555 10.286 25.2555 10.742V14H22.7355V6.134H25.0215Z" fill="#89BCD9"/>
<path d="M44.29 0.0679991H45.964V14H44.29V0.0679991ZM48.2123 10.202C48.2123 9.458 48.3863 8.786 48.7343 8.186C49.0943 7.586 49.5863 7.112 50.2103 6.764C50.8343 6.416 51.5423 6.242 52.3343 6.242C53.1503 6.242 53.8643 6.416 54.4763 6.764C55.0883 7.112 55.5623 7.586 55.8983 8.186C56.2343 8.786 56.4023 9.458 56.4023 10.202C56.4023 10.946 56.2343 11.624 55.8983 12.236C55.5623 12.836 55.0823 13.31 54.4583 13.658C53.8463 14.006 53.1323 14.18 52.3163 14.18C51.5243 14.18 50.8163 14.018 50.1923 13.694C49.5803 13.358 49.0943 12.896 48.7343 12.308C48.3863 11.708 48.2123 11.006 48.2123 10.202ZM49.8863 10.22C49.8863 10.7 49.9943 11.138 50.2103 11.534C50.4263 11.918 50.7143 12.224 51.0743 12.452C51.4463 12.68 51.8543 12.794 52.2983 12.794C52.7663 12.794 53.1803 12.68 53.5403 12.452C53.9123 12.224 54.2003 11.918 54.4043 11.534C54.6083 11.138 54.7103 10.7 54.7103 10.22C54.7103 9.74 54.6083 9.308 54.4043 8.924C54.2003 8.528 53.9123 8.216 53.5403 7.988C53.1803 7.748 52.7663 7.628 52.2983 7.628C51.8423 7.628 51.4283 7.748 51.0563 7.988C50.6963 8.228 50.4083 8.546 50.1923 8.942C49.9883 9.326 49.8863 9.752 49.8863 10.22ZM64.7169 13.316C64.3809 13.58 63.9789 13.79 63.5109 13.946C63.0429 14.102 62.5749 14.18 62.1069 14.18C61.2909 14.18 60.5769 14.018 59.9649 13.694C59.3529 13.37 58.8729 12.92 58.5249 12.344C58.1889 11.756 58.0209 11.066 58.0209 10.274C58.0209 9.482 58.2009 8.792 58.5609 8.204C58.9329 7.616 59.4129 7.166 60.0009 6.854C60.6009 6.53 61.2429 6.368 61.9269 6.368C62.5269 6.368 63.0609 6.452 63.5289 6.62C64.0089 6.788 64.4169 7.016 64.7529 7.304L63.9249 8.384C63.7089 8.216 63.4449 8.066 63.1329 7.934C62.8209 7.802 62.4669 7.736 62.0709 7.736C61.6389 7.736 61.2369 7.85 60.8649 8.078C60.5049 8.294 60.2169 8.594 60.0009 8.978C59.7969 9.362 59.6949 9.794 59.6949 10.274C59.6949 10.73 59.8029 11.156 60.0189 11.552C60.2349 11.936 60.5349 12.242 60.9189 12.47C61.3029 12.686 61.7409 12.794 62.2329 12.794C62.5569 12.794 62.8509 12.746 63.1149 12.65C63.3909 12.554 63.6369 12.422 63.8529 12.254L64.7169 13.316ZM69.9739 14.18C69.2779 14.18 68.6419 14.03 68.0659 13.73C67.5019 13.43 67.0519 12.992 66.7159 12.416C66.3919 11.828 66.2299 11.114 66.2299 10.274C66.2299 9.446 66.4039 8.732 66.7519 8.132C67.0999 7.52 67.5619 7.052 68.1379 6.728C68.7259 6.404 69.3679 6.242 70.0639 6.242C70.7599 6.242 71.3479 6.404 71.8279 6.728C72.3079 7.04 72.6739 7.412 72.9259 7.844L72.8179 8.132L72.9799 6.548H74.5279V14H72.8539V12.056L73.0339 12.488C72.9859 12.608 72.8779 12.764 72.7099 12.956C72.5539 13.136 72.3379 13.322 72.0619 13.514C71.7979 13.706 71.4919 13.868 71.1439 14C70.7959 14.12 70.4059 14.18 69.9739 14.18ZM70.4239 12.794C70.8439 12.794 71.2219 12.716 71.5579 12.56C71.8939 12.404 72.1699 12.188 72.3859 11.912C72.6139 11.624 72.7699 11.282 72.8539 10.886V9.428C72.7579 9.068 72.5899 8.756 72.3499 8.492C72.1099 8.216 71.8219 8.006 71.4859 7.862C71.1499 7.706 70.7779 7.628 70.3699 7.628C69.9259 7.628 69.5179 7.736 69.1459 7.952C68.7739 8.168 68.4739 8.468 68.2459 8.852C68.0299 9.236 67.9219 9.686 67.9219 10.202C67.9219 10.682 68.0359 11.12 68.2639 11.516C68.4919 11.912 68.7979 12.224 69.1819 12.452C69.5659 12.68 69.9799 12.794 70.4239 12.794ZM78.1448 3.272H79.8188V6.584H81.8708V7.898H79.8188V14H78.1448V7.898H76.7768V6.584H78.1448V3.272ZM87.3495 14.18C86.4975 14.18 85.7655 14.012 85.1535 13.676C84.5415 13.328 84.0675 12.86 83.7315 12.272C83.4075 11.672 83.2455 10.988 83.2455 10.22C83.2455 9.488 83.4315 8.822 83.8035 8.222C84.1755 7.622 84.6735 7.142 85.2975 6.782C85.9215 6.422 86.6175 6.242 87.3855 6.242C88.3695 6.242 89.1855 6.53 89.8335 7.106C90.4815 7.682 90.9195 8.474 91.1475 9.482L85.0095 11.642L84.6135 10.652L89.6535 8.816L89.2935 9.05C89.1495 8.654 88.9095 8.312 88.5735 8.024C88.2375 7.724 87.7995 7.574 87.2595 7.574C86.8035 7.574 86.3955 7.688 86.0355 7.916C85.6755 8.132 85.3935 8.432 85.1895 8.816C84.9855 9.2 84.8835 9.638 84.8835 10.13C84.8835 10.646 84.9915 11.102 85.2075 11.498C85.4235 11.882 85.7175 12.188 86.0895 12.416C86.4735 12.632 86.9055 12.74 87.3855 12.74C87.7095 12.74 88.0215 12.68 88.3215 12.56C88.6335 12.44 88.9215 12.284 89.1855 12.092L89.9595 13.334C89.5875 13.586 89.1675 13.79 88.6995 13.946C88.2435 14.102 87.7935 14.18 87.3495 14.18ZM96.2691 14.18C95.5851 14.18 94.9611 14.018 94.3971 13.694C93.8451 13.358 93.4071 12.89 93.0831 12.29C92.7591 11.678 92.5971 10.976 92.5971 10.184C92.5971 9.356 92.7651 8.648 93.1011 8.06C93.4491 7.472 93.9171 7.022 94.5051 6.71C95.0931 6.398 95.7531 6.242 96.4851 6.242C97.0731 6.242 97.6311 6.368 98.1591 6.62C98.6991 6.872 99.1191 7.22 99.4191 7.664L99.3471 8.258V0.0679991H101.003V14H99.3291V12.146L99.5091 12.614C99.1611 13.07 98.7111 13.448 98.1591 13.748C97.6071 14.036 96.9771 14.18 96.2691 14.18ZM96.7911 12.758C97.2351 12.758 97.6311 12.68 97.9791 12.524C98.3271 12.356 98.6151 12.128 98.8431 11.84C99.0711 11.552 99.2331 11.21 99.3291 10.814V9.41C99.2331 9.05 99.0591 8.738 98.8071 8.474C98.5671 8.198 98.2731 7.982 97.9251 7.826C97.5891 7.658 97.2111 7.574 96.7911 7.574C96.3351 7.574 95.9151 7.688 95.5311 7.916C95.1591 8.132 94.8591 8.432 94.6311 8.816C94.4031 9.2 94.2891 9.644 94.2891 10.148C94.2891 10.64 94.4031 11.084 94.6311 11.48C94.8591 11.864 95.1651 12.176 95.5491 12.416C95.9331 12.644 96.3471 12.758 96.7911 12.758ZM109.61 6.548H111.284V14H109.61V6.548ZM109.484 3.848C109.484 3.584 109.586 3.362 109.79 3.182C110.006 3.002 110.24 2.912 110.492 2.912C110.744 2.912 110.966 3.002 111.158 3.182C111.362 3.362 111.464 3.584 111.464 3.848C111.464 4.124 111.362 4.352 111.158 4.532C110.966 4.7 110.744 4.784 110.492 4.784C110.24 4.784 110.006 4.694 109.79 4.514C109.586 4.334 109.484 4.112 109.484 3.848ZM115.675 6.548L115.819 8.366L115.747 8.078C115.987 7.526 116.377 7.088 116.917 6.764C117.457 6.428 118.081 6.26 118.789 6.26C119.497 6.26 120.073 6.47 120.517 6.89C120.973 7.298 121.207 7.832 121.219 8.492V14H119.527V9.086C119.515 8.678 119.395 8.348 119.167 8.096C118.951 7.832 118.609 7.7 118.141 7.7C117.709 7.7 117.319 7.82 116.971 8.06C116.623 8.3 116.347 8.63 116.143 9.05C115.951 9.47 115.855 9.956 115.855 10.508V14H114.181V6.548H115.675ZM130.239 14V0.571999H130.257L137.079 10.256L136.341 10.112L143.145 0.571999H143.181V14H141.453V4.532L141.561 5.414L136.647 12.362H136.611L131.625 5.414L131.931 4.604V14H130.239ZM148.865 14.288C148.193 14.288 147.635 14.084 147.191 13.676C146.759 13.256 146.531 12.716 146.507 12.056V6.548H148.181V11.462C148.205 11.87 148.319 12.2 148.523 12.452C148.739 12.704 149.075 12.836 149.531 12.848C149.951 12.848 150.323 12.728 150.647 12.488C150.983 12.236 151.253 11.9 151.457 11.48C151.661 11.048 151.763 10.562 151.763 10.022V6.548H153.437V14H151.907L151.763 12.164L151.853 12.488C151.709 12.836 151.487 13.148 151.187 13.424C150.899 13.688 150.557 13.898 150.161 14.054C149.765 14.21 149.333 14.288 148.865 14.288ZM157.827 6.548L157.971 8.366L157.899 8.078C158.139 7.526 158.529 7.088 159.069 6.764C159.609 6.428 160.233 6.26 160.941 6.26C161.649 6.26 162.225 6.47 162.669 6.89C163.125 7.298 163.359 7.832 163.371 8.492V14H161.679V9.086C161.667 8.678 161.547 8.348 161.319 8.096C161.103 7.832 160.761 7.7 160.293 7.7C159.861 7.7 159.471 7.82 159.123 8.06C158.775 8.3 158.499 8.63 158.295 9.05C158.103 9.47 158.007 9.956 158.007 10.508V14H156.333V6.548H157.827ZM166.282 6.548H167.956V14H166.282V6.548ZM166.156 3.848C166.156 3.584 166.258 3.362 166.462 3.182C166.678 3.002 166.912 2.912 167.164 2.912C167.416 2.912 167.638 3.002 167.83 3.182C168.034 3.362 168.136 3.584 168.136 3.848C168.136 4.124 168.034 4.352 167.83 4.532C167.638 4.7 167.416 4.784 167.164 4.784C166.912 4.784 166.678 4.694 166.462 4.514C166.258 4.334 166.156 4.112 166.156 3.848ZM176.901 13.316C176.565 13.58 176.163 13.79 175.695 13.946C175.227 14.102 174.759 14.18 174.291 14.18C173.475 14.18 172.761 14.018 172.149 13.694C171.537 13.37 171.057 12.92 170.709 12.344C170.373 11.756 170.205 11.066 170.205 10.274C170.205 9.482 170.385 8.792 170.745 8.204C171.117 7.616 171.597 7.166 172.185 6.854C172.785 6.53 173.427 6.368 174.111 6.368C174.711 6.368 175.245 6.452 175.713 6.62C176.193 6.788 176.601 7.016 176.937 7.304L176.109 8.384C175.893 8.216 175.629 8.066 175.317 7.934C175.005 7.802 174.651 7.736 174.255 7.736C173.823 7.736 173.421 7.85 173.049 8.078C172.689 8.294 172.401 8.594 172.185 8.978C171.981 9.362 171.879 9.794 171.879 10.274C171.879 10.73 171.987 11.156 172.203 11.552C172.419 11.936 172.719 12.242 173.103 12.47C173.487 12.686 173.925 12.794 174.417 12.794C174.741 12.794 175.035 12.746 175.299 12.65C175.575 12.554 175.821 12.422 176.037 12.254L176.901 13.316ZM179.062 14V0.0679991H180.7V8.276L180.664 7.97C180.916 7.478 181.3 7.07 181.816 6.746C182.344 6.422 182.962 6.26 183.67 6.26C184.378 6.26 184.954 6.47 185.398 6.89C185.854 7.298 186.088 7.832 186.1 8.492V14H184.408V9.086C184.396 8.678 184.276 8.348 184.048 8.096C183.832 7.832 183.49 7.7 183.022 7.7C182.59 7.7 182.2 7.826 181.852 8.078C181.504 8.318 181.228 8.648 181.024 9.068C180.832 9.488 180.736 9.968 180.736 10.508V14H179.062ZM188.165 13.046C188.165 12.782 188.261 12.56 188.453 12.38C188.657 12.188 188.879 12.092 189.119 12.092C189.335 12.092 189.539 12.188 189.731 12.38C189.935 12.56 190.037 12.782 190.037 13.046C190.037 13.334 189.935 13.568 189.731 13.748C189.539 13.916 189.335 14 189.119 14C188.879 14 188.657 13.916 188.453 13.748C188.261 13.568 188.165 13.334 188.165 13.046ZM191.188 13.046C191.188 12.782 191.284 12.56 191.476 12.38C191.68 12.188 191.902 12.092 192.142 12.092C192.358 12.092 192.562 12.188 192.754 12.38C192.958 12.56 193.06 12.782 193.06 13.046C193.06 13.334 192.958 13.568 192.754 13.748C192.562 13.916 192.358 14 192.142 14C191.902 14 191.68 13.916 191.476 13.748C191.284 13.568 191.188 13.334 191.188 13.046ZM195.256 1.238H196.786V18.23H195.256V1.238Z" fill="#F8F5EC"/>
</svg>
