<svg width="113" height="30" viewBox="0 0 113 30" fill="none" xmlns="http://www.w3.org/2000/svg">
<path d="M3.78125 0.78125L6.6875 17.5312L10.6875 10.25H13.7969L17.7969 17.5312L20.7031 0.78125H24L20.1406 23H17.1719L12.2344 14.0625L7.3125 23H4.32812L0.46875 0.78125H3.78125ZM26.9688 0.78125H30.2656V6.8125H35.3594C36.4844 6.8125 37.5052 7.07812 38.4219 7.60938C39.349 8.13021 40.0833 8.83333 40.625 9.71875C41.1771 10.5938 41.4531 11.5677 41.4531 12.6406V23H38.1562V12.6875C38.1562 12 37.875 11.401 37.3125 10.8906C36.7604 10.3698 36.1094 10.1094 35.3594 10.1094H30.2656V23H26.9688V0.78125ZM47.7812 6.8125L51.9844 18.0312L56.2812 6.8125H59.9219L51.3281 29.0938H47.7188L50.2344 22.4688L44.2812 6.8125H47.7812ZM71.1875 10.1094C71.1875 9.20312 71.5104 8.42708 72.1562 7.78125C72.8021 7.13542 73.5833 6.8125 74.5 6.8125H79.4375C80.7708 6.8125 81.8646 7.22917 82.7188 8.0625C83.5521 7.22917 84.6458 6.8125 86 6.8125H88.4375C89.5104 6.8125 90.4896 7.07812 91.375 7.60938C92.2604 8.13021 92.9635 8.83333 93.4844 9.71875C94.0156 10.5938 94.2812 11.5677 94.2812 12.6406V23H91V12.6875C91 11.9688 90.75 11.3594 90.25 10.8594C89.75 10.349 89.1458 10.0938 88.4375 10.0938H86C85.5417 10.0938 85.151 10.2396 84.8281 10.5312C84.5052 10.8125 84.3438 11.1562 84.3438 11.5625V23H81.0469V11.5625C81.0469 11.1562 80.8906 10.8125 80.5781 10.5312C80.2656 10.2396 79.8854 10.0938 79.4375 10.0938H74.4844V23H71.1875V10.1094ZM98.0312 10.1562C98.0312 9.22917 98.3698 8.44271 99.0469 7.79688C99.724 7.14062 100.536 6.8125 101.484 6.8125H108.234C109.099 6.8125 109.88 7.02604 110.578 7.45312C111.286 7.86979 111.849 8.4375 112.266 9.15625C112.693 9.86458 112.906 10.651 112.906 11.5156V11.9688C112.906 12.8229 112.693 13.6042 112.266 14.3125C111.849 15.0104 111.286 15.5729 110.578 16C109.88 16.4167 109.099 16.625 108.234 16.625H103.203V13.3438H108.266C108.641 13.3438 108.958 13.2083 109.219 12.9375C109.49 12.6667 109.625 12.3385 109.625 11.9531V11.5156C109.625 11.1198 109.49 10.7865 109.219 10.5156C108.958 10.2448 108.641 10.1094 108.266 10.1094H101.328V18.4219C101.328 18.776 101.448 19.0781 101.688 19.3281C101.927 19.5781 102.219 19.7031 102.562 19.7031H111.766V23H102.562C101.729 23 100.969 22.7969 100.281 22.3906C99.5938 21.974 99.0469 21.4219 98.6406 20.7344C98.2344 20.0365 98.0312 19.2708 98.0312 18.4375V10.1562Z" fill="#89BCD9"/>
</svg>
