<svg width="23" height="14" viewBox="0 0 23 14" fill="none" xmlns="http://www.w3.org/2000/svg">
<path d="M0.0204375 13.3594V0.345374H3.56644C4.85044 0.345374 5.94244 0.543374 6.84244 0.939374C7.75444 1.33537 8.48644 1.85737 9.03844 2.50537C9.59044 3.15337 9.99244 3.87337 10.2444 4.66537C10.5084 5.44537 10.6404 6.22537 10.6404 7.00537C10.6404 7.98937 10.4664 8.87137 10.1184 9.65137C9.78244 10.4314 9.31444 11.0974 8.71444 11.6494C8.11444 12.2014 7.42444 12.6274 6.64444 12.9274C5.87644 13.2154 5.06044 13.3594 4.19644 13.3594H0.0204375ZM1.76644 11.6854H3.85444C4.57444 11.6854 5.23444 11.5774 5.83444 11.3614C6.44644 11.1454 6.97444 10.8334 7.41844 10.4254C7.87444 10.0174 8.22844 9.51937 8.48044 8.93137C8.73244 8.33137 8.85844 7.65337 8.85844 6.89737C8.85844 6.09337 8.72644 5.39137 8.46244 4.79137C8.19844 4.17937 7.83844 3.66937 7.38244 3.26137C6.92644 2.85337 6.41044 2.54737 5.83444 2.34337C5.25844 2.12737 4.65244 2.01937 4.01644 2.01937H1.76644V11.6854ZM13.5732 0.345374H22.0332V2.01937H15.3192V5.97937H21.3132V7.65337H15.3192V11.6854H22.2852V13.3594H13.5732V0.345374Z" fill="#262E34"/>
</svg>
